# MagicaVoxel @ Ephtracy

# group
o 

# material
mtllib redbuilding.mtl
usemtl palette

# normals
vn -1 0 0
vn 1 0 0
vn 0 0 1
vn 0 0 -1
vn 0 -1 0
vn 0 1 0

# texcoords
vt 0.0996094 0.5
vt 0.994141 0.5

# verts
v 1.4 2 -0.1
v 1.4 2 -4
v 1.4 5.2 -0.1
v 1.4 5.2 -4
v 3.2 2 -0.1
v 3.2 2 -4
v 3.2 2.4 -0.4
v 3.2 2.4 -0.9
v 3.2 2.4 -1.2
v 3.2 2.4 -1.7
v 3.2 2.4 -2
v 3.2 2.4 -2.4
v 3.2 2.4 -2.7
v 3.2 2.4 -3.1
v 3.2 2.4 -3.4
v 3.2 2.4 -3.9
v 3.2 2.5 -0.4
v 3.2 2.5 -0.9
v 3.2 2.5 -1.2
v 3.2 2.5 -1.7
v 3.2 2.5 -2
v 3.2 2.5 -2.4
v 3.2 2.5 -2.7
v 3.2 2.5 -3.1
v 3.2 2.5 -3.4
v 3.2 2.5 -3.9
v 3.2 2.8 -0.1
v 3.2 2.8 -0.5
v 3.2 2.8 -0.9
v 3.2 2.8 -1.3
v 3.2 2.8 -1.6
v 3.2 2.8 -2
v 3.2 2.8 -2.3
v 3.2 2.8 -2.7
v 3.2 2.8 -3
v 3.2 2.8 -3.5
v 3.2 2.8 -3.7
v 3.2 2.8 -4
v 3.2 2.9 -0.1
v 3.2 2.9 -0.5
v 3.2 2.9 -0.9
v 3.2 2.9 -1.3
v 3.2 2.9 -1.6
v 3.2 2.9 -2
v 3.2 2.9 -2.3
v 3.2 2.9 -2.7
v 3.2 2.9 -3
v 3.2 2.9 -3.5
v 3.2 2.9 -3.7
v 3.2 2.9 -4
v 3.2 3.2 -0.3
v 3.2 3.2 -0.9
v 3.2 3.2 -1.2
v 3.2 3.2 -1.6
v 3.2 3.2 -1.9
v 3.2 3.2 -2.4
v 3.2 3.2 -2.6
v 3.2 3.2 -3
v 3.2 3.2 -3.2
v 3.2 3.2 -3.7
v 3.2 3.3 -0.3
v 3.2 3.3 -0.9
v 3.2 3.3 -1.2
v 3.2 3.3 -1.6
v 3.2 3.3 -1.9
v 3.2 3.3 -2.4
v 3.2 3.3 -2.6
v 3.2 3.3 -3
v 3.2 3.3 -3.2
v 3.2 3.3 -3.7
v 3.2 3.6 -0.1
v 3.2 3.6 -0.6
v 3.2 3.6 -0.8
v 3.2 3.6 -1.1
v 3.2 3.6 -1.5
v 3.2 3.6 -2
v 3.2 3.6 -2.2
v 3.2 3.6 -2.7
v 3.2 3.6 -2.9
v 3.2 3.6 -3.4
v 3.2 3.6 -3.6
v 3.2 3.6 -4
v 3.2 3.7 -0.1
v 3.2 3.7 -0.6
v 3.2 3.7 -0.8
v 3.2 3.7 -1.1
v 3.2 3.7 -1.5
v 3.2 3.7 -2
v 3.2 3.7 -2.2
v 3.2 3.7 -2.7
v 3.2 3.7 -2.9
v 3.2 3.7 -3.4
v 3.2 3.7 -3.6
v 3.2 3.7 -4
v 3.2 4 -0.3
v 3.2 4 -0.8
v 3.2 4 -1.1
v 3.2 4 -1.6
v 3.2 4 -1.9
v 3.2 4 -2.4
v 3.2 4 -2.6
v 3.2 4 -3.1
v 3.2 4 -3.3
v 3.2 4 -3.8
v 3.2 4.1 -0.3
v 3.2 4.1 -0.8
v 3.2 4.1 -1.1
v 3.2 4.1 -1.6
v 3.2 4.1 -1.9
v 3.2 4.1 -2.4
v 3.2 4.1 -2.6
v 3.2 4.1 -3.1
v 3.2 4.1 -3.3
v 3.2 4.1 -3.8
v 3.2 4.3 -0.1
v 3.2 4.3 -0.5
v 3.2 4.3 -0.7
v 3.2 4.3 -1.2
v 3.2 4.3 -1.4
v 3.2 4.3 -1.9
v 3.2 4.3 -2.1
v 3.2 4.3 -2.6
v 3.2 4.3 -2.8
v 3.2 4.3 -3.3
v 3.2 4.3 -3.5
v 3.2 4.3 -4
v 3.2 4.4 -0.1
v 3.2 4.4 -0.5
v 3.2 4.4 -0.7
v 3.2 4.4 -1.2
v 3.2 4.4 -1.4
v 3.2 4.4 -1.9
v 3.2 4.4 -2.1
v 3.2 4.4 -2.6
v 3.2 4.4 -2.8
v 3.2 4.4 -3.3
v 3.2 4.4 -3.5
v 3.2 4.4 -4
v 3.2 4.6 -0.3
v 3.2 4.6 -0.8
v 3.2 4.6 -1.1
v 3.2 4.6 -1.6
v 3.2 4.6 -1.9
v 3.2 4.6 -2.4
v 3.2 4.6 -2.6
v 3.2 4.6 -3.1
v 3.2 4.6 -3.3
v 3.2 4.6 -3.8
v 3.2 4.7 -0.3
v 3.2 4.7 -0.8
v 3.2 4.7 -1.1
v 3.2 4.7 -1.6
v 3.2 4.7 -1.9
v 3.2 4.7 -2.4
v 3.2 4.7 -2.6
v 3.2 4.7 -3.1
v 3.2 4.7 -3.3
v 3.2 4.7 -3.8
v 3.2 4.9 -0.1
v 3.2 4.9 -0.5
v 3.2 4.9 -0.7
v 3.2 4.9 -1.2
v 3.2 4.9 -1.4
v 3.2 4.9 -1.9
v 3.2 4.9 -2.1
v 3.2 4.9 -2.6
v 3.2 4.9 -2.8
v 3.2 4.9 -3.3
v 3.2 4.9 -3.5
v 3.2 4.9 -4
v 3.2 5 -0.1
v 3.2 5 -0.5
v 3.2 5 -0.7
v 3.2 5 -1.2
v 3.2 5 -1.4
v 3.2 5 -1.9
v 3.2 5 -2.1
v 3.2 5 -2.6
v 3.2 5 -2.8
v 3.2 5 -3.3
v 3.2 5 -3.5
v 3.2 5 -4
v 3.2 5.2 -0.1
v 3.2 5.2 -4
v 1.4 2 -0.1
v 1.4 5.2 -0.1
v 3.1 2.8 -0.1
v 3.1 2.9 -0.1
v 3.1 3.6 -0.1
v 3.1 3.7 -0.1
v 3.1 4.3 -0.1
v 3.1 4.4 -0.1
v 3.1 4.9 -0.1
v 3.1 5 -0.1
v 3.2 2 -0.1
v 3.2 2.8 -0.1
v 3.2 2.9 -0.1
v 3.2 3.6 -0.1
v 3.2 3.7 -0.1
v 3.2 4.3 -0.1
v 3.2 4.4 -0.1
v 3.2 4.9 -0.1
v 3.2 5 -0.1
v 3.2 5.2 -0.1
v 1.4 2 -4
v 1.4 5.2 -4
v 3.1 2.8 -4
v 3.1 2.9 -4
v 3.1 3.6 -4
v 3.1 3.7 -4
v 3.1 4.3 -4
v 3.1 4.4 -4
v 3.1 4.9 -4
v 3.1 5 -4
v 3.2 2 -4
v 3.2 2.8 -4
v 3.2 2.9 -4
v 3.2 3.6 -4
v 3.2 3.7 -4
v 3.2 4.3 -4
v 3.2 4.4 -4
v 3.2 4.9 -4
v 3.2 5 -4
v 3.2 5.2 -4
v 1.4 2 -0.1
v 3.2 2 -0.1
v 1.4 2 -4
v 3.2 2 -4
v 1.4 5.2 -0.1
v 3.2 5.2 -0.1
v 1.4 5.2 -4
v 3.2 5.2 -4

# faces
f 3/1/1 2/1/1 1/1/1
f 4/1/1 2/1/1 3/1/1
f 5/1/2 6/1/2 7/1/2
f 7/1/2 6/1/2 8/1/2
f 8/1/2 6/1/2 9/1/2
f 9/1/2 6/1/2 10/1/2
f 10/1/2 6/1/2 11/1/2
f 11/1/2 6/1/2 12/1/2
f 12/1/2 6/1/2 13/1/2
f 13/1/2 6/1/2 14/1/2
f 14/1/2 6/1/2 15/1/2
f 15/1/2 6/1/2 16/1/2
f 5/1/2 7/1/2 17/1/2
f 7/2/2 8/2/2 17/2/2
f 8/1/2 9/1/2 18/1/2
f 17/2/2 8/2/2 18/2/2
f 9/2/2 10/2/2 19/2/2
f 18/1/2 9/1/2 19/1/2
f 10/1/2 11/1/2 20/1/2
f 19/2/2 10/2/2 20/2/2
f 11/2/2 12/2/2 21/2/2
f 20/1/2 11/1/2 21/1/2
f 12/1/2 13/1/2 22/1/2
f 21/2/2 12/2/2 22/2/2
f 13/2/2 14/2/2 23/2/2
f 22/1/2 13/1/2 23/1/2
f 14/1/2 15/1/2 24/1/2
f 23/2/2 14/2/2 24/2/2
f 15/2/2 16/2/2 25/2/2
f 24/1/2 15/1/2 25/1/2
f 16/1/2 6/1/2 26/1/2
f 25/2/2 16/2/2 26/2/2
f 24/1/2 25/1/2 27/1/2
f 23/1/2 24/1/2 27/1/2
f 25/1/2 26/1/2 27/1/2
f 22/1/2 23/1/2 27/1/2
f 21/1/2 22/1/2 27/1/2
f 20/1/2 21/1/2 27/1/2
f 19/1/2 20/1/2 27/1/2
f 18/1/2 19/1/2 27/1/2
f 17/1/2 18/1/2 27/1/2
f 5/1/2 17/1/2 27/1/2
f 27/1/2 26/1/2 28/1/2
f 28/1/2 26/1/2 29/1/2
f 29/1/2 26/1/2 30/1/2
f 30/1/2 26/1/2 31/1/2
f 31/1/2 26/1/2 32/1/2
f 32/1/2 26/1/2 33/1/2
f 33/1/2 26/1/2 34/1/2
f 34/1/2 26/1/2 35/1/2
f 35/1/2 26/1/2 36/1/2
f 36/1/2 26/1/2 37/1/2
f 26/1/2 6/1/2 38/1/2
f 37/1/2 26/1/2 38/1/2
f 27/2/2 28/2/2 39/2/2
f 28/1/2 29/1/2 40/1/2
f 39/2/2 28/2/2 40/2/2
f 29/2/2 30/2/2 41/2/2
f 40/1/2 29/1/2 41/1/2
f 30/1/2 31/1/2 42/1/2
f 41/2/2 30/2/2 42/2/2
f 31/2/2 32/2/2 43/2/2
f 42/1/2 31/1/2 43/1/2
f 32/1/2 33/1/2 44/1/2
f 43/2/2 32/2/2 44/2/2
f 33/2/2 34/2/2 45/2/2
f 44/1/2 33/1/2 45/1/2
f 34/1/2 35/1/2 46/1/2
f 45/2/2 34/2/2 46/2/2
f 35/2/2 36/2/2 47/2/2
f 46/1/2 35/1/2 47/1/2
f 36/1/2 37/1/2 48/1/2
f 47/2/2 36/2/2 48/2/2
f 37/2/2 38/2/2 49/2/2
f 48/1/2 37/1/2 49/1/2
f 49/2/2 38/2/2 50/2/2
f 46/1/2 47/1/2 51/1/2
f 39/1/2 40/1/2 51/1/2
f 49/1/2 50/1/2 51/1/2
f 48/1/2 49/1/2 51/1/2
f 47/1/2 48/1/2 51/1/2
f 45/1/2 46/1/2 51/1/2
f 44/1/2 45/1/2 51/1/2
f 43/1/2 44/1/2 51/1/2
f 42/1/2 43/1/2 51/1/2
f 41/1/2 42/1/2 51/1/2
f 40/1/2 41/1/2 51/1/2
f 51/1/2 50/1/2 52/1/2
f 52/1/2 50/1/2 53/1/2
f 53/1/2 50/1/2 54/1/2
f 54/1/2 50/1/2 55/1/2
f 55/1/2 50/1/2 56/1/2
f 56/1/2 50/1/2 57/1/2
f 57/1/2 50/1/2 58/1/2
f 58/1/2 50/1/2 59/1/2
f 59/1/2 50/1/2 60/1/2
f 39/1/2 51/1/2 61/1/2
f 51/2/2 52/2/2 61/2/2
f 52/1/2 53/1/2 62/1/2
f 61/2/2 52/2/2 62/2/2
f 53/2/2 54/2/2 63/2/2
f 62/1/2 53/1/2 63/1/2
f 54/1/2 55/1/2 64/1/2
f 63/2/2 54/2/2 64/2/2
f 55/2/2 56/2/2 65/2/2
f 64/1/2 55/1/2 65/1/2
f 56/1/2 57/1/2 66/1/2
f 65/2/2 56/2/2 66/2/2
f 57/2/2 58/2/2 67/2/2
f 66/1/2 57/1/2 67/1/2
f 58/1/2 59/1/2 68/1/2
f 67/2/2 58/2/2 68/2/2
f 59/2/2 60/2/2 69/2/2
f 68/1/2 59/1/2 69/1/2
f 60/1/2 50/1/2 70/1/2
f 69/2/2 60/2/2 70/2/2
f 68/1/2 69/1/2 71/1/2
f 67/1/2 68/1/2 71/1/2
f 69/1/2 70/1/2 71/1/2
f 66/1/2 67/1/2 71/1/2
f 65/1/2 66/1/2 71/1/2
f 64/1/2 65/1/2 71/1/2
f 63/1/2 64/1/2 71/1/2
f 62/1/2 63/1/2 71/1/2
f 61/1/2 62/1/2 71/1/2
f 39/1/2 61/1/2 71/1/2
f 71/1/2 70/1/2 72/1/2
f 72/1/2 70/1/2 73/1/2
f 73/1/2 70/1/2 74/1/2
f 74/1/2 70/1/2 75/1/2
f 75/1/2 70/1/2 76/1/2
f 76/1/2 70/1/2 77/1/2
f 77/1/2 70/1/2 78/1/2
f 78/1/2 70/1/2 79/1/2
f 79/1/2 70/1/2 80/1/2
f 80/1/2 70/1/2 81/1/2
f 70/1/2 50/1/2 82/1/2
f 81/1/2 70/1/2 82/1/2
f 71/2/2 72/2/2 83/2/2
f 72/1/2 73/1/2 84/1/2
f 83/2/2 72/2/2 84/2/2
f 73/2/2 74/2/2 85/2/2
f 84/1/2 73/1/2 85/1/2
f 74/1/2 75/1/2 86/1/2
f 85/2/2 74/2/2 86/2/2
f 75/2/2 76/2/2 87/2/2
f 86/1/2 75/1/2 87/1/2
f 76/1/2 77/1/2 88/1/2
f 87/2/2 76/2/2 88/2/2
f 77/2/2 78/2/2 89/2/2
f 88/1/2 77/1/2 89/1/2
f 78/1/2 79/1/2 90/1/2
f 89/2/2 78/2/2 90/2/2
f 79/2/2 80/2/2 91/2/2
f 90/1/2 79/1/2 91/1/2
f 80/1/2 81/1/2 92/1/2
f 91/2/2 80/2/2 92/2/2
f 81/2/2 82/2/2 93/2/2
f 92/1/2 81/1/2 93/1/2
f 93/2/2 82/2/2 94/2/2
f 90/1/2 91/1/2 95/1/2
f 83/1/2 84/1/2 95/1/2
f 93/1/2 94/1/2 95/1/2
f 92/1/2 93/1/2 95/1/2
f 91/1/2 92/1/2 95/1/2
f 89/1/2 90/1/2 95/1/2
f 88/1/2 89/1/2 95/1/2
f 87/1/2 88/1/2 95/1/2
f 86/1/2 87/1/2 95/1/2
f 85/1/2 86/1/2 95/1/2
f 84/1/2 85/1/2 95/1/2
f 95/1/2 94/1/2 96/1/2
f 96/1/2 94/1/2 97/1/2
f 97/1/2 94/1/2 98/1/2
f 98/1/2 94/1/2 99/1/2
f 99/1/2 94/1/2 100/1/2
f 100/1/2 94/1/2 101/1/2
f 101/1/2 94/1/2 102/1/2
f 102/1/2 94/1/2 103/1/2
f 103/1/2 94/1/2 104/1/2
f 83/1/2 95/1/2 105/1/2
f 95/2/2 96/2/2 105/2/2
f 96/1/2 97/1/2 106/1/2
f 105/2/2 96/2/2 106/2/2
f 97/2/2 98/2/2 107/2/2
f 106/1/2 97/1/2 107/1/2
f 98/1/2 99/1/2 108/1/2
f 107/2/2 98/2/2 108/2/2
f 99/2/2 100/2/2 109/2/2
f 108/1/2 99/1/2 109/1/2
f 100/1/2 101/1/2 110/1/2
f 109/2/2 100/2/2 110/2/2
f 101/2/2 102/2/2 111/2/2
f 110/1/2 101/1/2 111/1/2
f 102/1/2 103/1/2 112/1/2
f 111/2/2 102/2/2 112/2/2
f 103/2/2 104/2/2 113/2/2
f 112/1/2 103/1/2 113/1/2
f 104/1/2 94/1/2 114/1/2
f 113/2/2 104/2/2 114/2/2
f 112/1/2 113/1/2 115/1/2
f 111/1/2 112/1/2 115/1/2
f 113/1/2 114/1/2 115/1/2
f 110/1/2 111/1/2 115/1/2
f 109/1/2 110/1/2 115/1/2
f 108/1/2 109/1/2 115/1/2
f 107/1/2 108/1/2 115/1/2
f 106/1/2 107/1/2 115/1/2
f 105/1/2 106/1/2 115/1/2
f 83/1/2 105/1/2 115/1/2
f 115/1/2 114/1/2 116/1/2
f 116/1/2 114/1/2 117/1/2
f 117/1/2 114/1/2 118/1/2
f 118/1/2 114/1/2 119/1/2
f 119/1/2 114/1/2 120/1/2
f 120/1/2 114/1/2 121/1/2
f 121/1/2 114/1/2 122/1/2
f 122/1/2 114/1/2 123/1/2
f 123/1/2 114/1/2 124/1/2
f 124/1/2 114/1/2 125/1/2
f 114/1/2 94/1/2 126/1/2
f 125/1/2 114/1/2 126/1/2
f 115/2/2 116/2/2 127/2/2
f 116/1/2 117/1/2 128/1/2
f 127/2/2 116/2/2 128/2/2
f 117/2/2 118/2/2 129/2/2
f 128/1/2 117/1/2 129/1/2
f 118/1/2 119/1/2 130/1/2
f 129/2/2 118/2/2 130/2/2
f 119/2/2 120/2/2 131/2/2
f 130/1/2 119/1/2 131/1/2
f 120/1/2 121/1/2 132/1/2
f 131/2/2 120/2/2 132/2/2
f 121/2/2 122/2/2 133/2/2
f 132/1/2 121/1/2 133/1/2
f 122/1/2 123/1/2 134/1/2
f 133/2/2 122/2/2 134/2/2
f 123/2/2 124/2/2 135/2/2
f 134/1/2 123/1/2 135/1/2
f 124/1/2 125/1/2 136/1/2
f 135/2/2 124/2/2 136/2/2
f 125/2/2 126/2/2 137/2/2
f 136/1/2 125/1/2 137/1/2
f 137/2/2 126/2/2 138/2/2
f 134/1/2 135/1/2 139/1/2
f 127/1/2 128/1/2 139/1/2
f 137/1/2 138/1/2 139/1/2
f 136/1/2 137/1/2 139/1/2
f 135/1/2 136/1/2 139/1/2
f 133/1/2 134/1/2 139/1/2
f 132/1/2 133/1/2 139/1/2
f 131/1/2 132/1/2 139/1/2
f 130/1/2 131/1/2 139/1/2
f 129/1/2 130/1/2 139/1/2
f 128/1/2 129/1/2 139/1/2
f 139/1/2 138/1/2 140/1/2
f 140/1/2 138/1/2 141/1/2
f 141/1/2 138/1/2 142/1/2
f 142/1/2 138/1/2 143/1/2
f 143/1/2 138/1/2 144/1/2
f 144/1/2 138/1/2 145/1/2
f 145/1/2 138/1/2 146/1/2
f 146/1/2 138/1/2 147/1/2
f 147/1/2 138/1/2 148/1/2
f 127/1/2 139/1/2 149/1/2
f 139/2/2 140/2/2 149/2/2
f 140/1/2 141/1/2 150/1/2
f 149/2/2 140/2/2 150/2/2
f 141/2/2 142/2/2 151/2/2
f 150/1/2 141/1/2 151/1/2
f 142/1/2 143/1/2 152/1/2
f 151/2/2 142/2/2 152/2/2
f 143/2/2 144/2/2 153/2/2
f 152/1/2 143/1/2 153/1/2
f 144/1/2 145/1/2 154/1/2
f 153/2/2 144/2/2 154/2/2
f 145/2/2 146/2/2 155/2/2
f 154/1/2 145/1/2 155/1/2
f 146/1/2 147/1/2 156/1/2
f 155/2/2 146/2/2 156/2/2
f 147/2/2 148/2/2 157/2/2
f 156/1/2 147/1/2 157/1/2
f 148/1/2 138/1/2 158/1/2
f 157/2/2 148/2/2 158/2/2
f 156/1/2 157/1/2 159/1/2
f 155/1/2 156/1/2 159/1/2
f 157/1/2 158/1/2 159/1/2
f 154/1/2 155/1/2 159/1/2
f 153/1/2 154/1/2 159/1/2
f 152/1/2 153/1/2 159/1/2
f 151/1/2 152/1/2 159/1/2
f 150/1/2 151/1/2 159/1/2
f 149/1/2 150/1/2 159/1/2
f 127/1/2 149/1/2 159/1/2
f 159/1/2 158/1/2 160/1/2
f 160/1/2 158/1/2 161/1/2
f 161/1/2 158/1/2 162/1/2
f 162/1/2 158/1/2 163/1/2
f 163/1/2 158/1/2 164/1/2
f 164/1/2 158/1/2 165/1/2
f 165/1/2 158/1/2 166/1/2
f 166/1/2 158/1/2 167/1/2
f 167/1/2 158/1/2 168/1/2
f 168/1/2 158/1/2 169/1/2
f 158/1/2 138/1/2 170/1/2
f 169/1/2 158/1/2 170/1/2
f 159/2/2 160/2/2 171/2/2
f 160/1/2 161/1/2 172/1/2
f 171/2/2 160/2/2 172/2/2
f 161/2/2 162/2/2 173/2/2
f 172/1/2 161/1/2 173/1/2
f 162/1/2 163/1/2 174/1/2
f 173/2/2 162/2/2 174/2/2
f 163/2/2 164/2/2 175/2/2
f 174/1/2 163/1/2 175/1/2
f 164/1/2 165/1/2 176/1/2
f 175/2/2 164/2/2 176/2/2
f 165/2/2 166/2/2 177/2/2
f 176/1/2 165/1/2 177/1/2
f 166/1/2 167/1/2 178/1/2
f 177/2/2 166/2/2 178/2/2
f 167/2/2 168/2/2 179/2/2
f 178/1/2 167/1/2 179/1/2
f 168/1/2 169/1/2 180/1/2
f 179/2/2 168/2/2 180/2/2
f 169/2/2 170/2/2 181/2/2
f 180/1/2 169/1/2 181/1/2
f 181/2/2 170/2/2 182/2/2
f 178/1/2 179/1/2 183/1/2
f 171/1/2 172/1/2 183/1/2
f 181/1/2 182/1/2 183/1/2
f 180/1/2 181/1/2 183/1/2
f 179/1/2 180/1/2 183/1/2
f 177/1/2 178/1/2 183/1/2
f 176/1/2 177/1/2 183/1/2
f 175/1/2 176/1/2 183/1/2
f 174/1/2 175/1/2 183/1/2
f 173/1/2 174/1/2 183/1/2
f 172/1/2 173/1/2 183/1/2
f 183/1/2 182/1/2 184/1/2
f 187/1/3 186/1/3 185/1/3
f 188/1/3 186/1/3 187/1/3
f 189/1/3 186/1/3 188/1/3
f 190/1/3 186/1/3 189/1/3
f 191/1/3 186/1/3 190/1/3
f 192/1/3 186/1/3 191/1/3
f 193/1/3 186/1/3 192/1/3
f 194/1/3 186/1/3 193/1/3
f 195/1/3 187/1/3 185/1/3
f 196/2/3 188/2/3 187/2/3
f 196/1/3 187/1/3 195/1/3
f 197/1/3 189/1/3 188/1/3
f 197/2/3 188/2/3 196/2/3
f 198/2/3 190/2/3 189/2/3
f 198/1/3 189/1/3 197/1/3
f 199/1/3 191/1/3 190/1/3
f 199/2/3 190/2/3 198/2/3
f 200/2/3 192/2/3 191/2/3
f 200/1/3 191/1/3 199/1/3
f 201/1/3 193/1/3 192/1/3
f 201/2/3 192/2/3 200/2/3
f 202/2/3 194/2/3 193/2/3
f 202/1/3 193/1/3 201/1/3
f 203/1/3 186/1/3 194/1/3
f 203/2/3 194/2/3 202/2/3
f 204/1/3 186/1/3 203/1/3
f 205/1/4 206/1/4 207/1/4
f 207/1/4 206/1/4 208/1/4
f 208/1/4 206/1/4 209/1/4
f 209/1/4 206/1/4 210/1/4
f 210/1/4 206/1/4 211/1/4
f 211/1/4 206/1/4 212/1/4
f 212/1/4 206/1/4 213/1/4
f 213/1/4 206/1/4 214/1/4
f 205/1/4 207/1/4 215/1/4
f 207/2/4 208/2/4 216/2/4
f 215/1/4 207/1/4 216/1/4
f 208/1/4 209/1/4 217/1/4
f 216/2/4 208/2/4 217/2/4
f 209/2/4 210/2/4 218/2/4
f 217/1/4 209/1/4 218/1/4
f 210/1/4 211/1/4 219/1/4
f 218/2/4 210/2/4 219/2/4
f 211/2/4 212/2/4 220/2/4
f 219/1/4 211/1/4 220/1/4
f 212/1/4 213/1/4 221/1/4
f 220/2/4 212/2/4 221/2/4
f 213/2/4 214/2/4 222/2/4
f 221/1/4 213/1/4 222/1/4
f 214/1/4 206/1/4 223/1/4
f 222/2/4 214/2/4 223/2/4
f 223/1/4 206/1/4 224/1/4
f 227/1/5 226/1/5 225/1/5
f 228/1/5 226/1/5 227/1/5
f 229/1/6 230/1/6 231/1/6
f 231/1/6 230/1/6 232/1/6
